<?xml version="1.0" encoding="UTF-8" standalone="no"?>
<svg
   xmlns:dc="http://purl.org/dc/elements/1.1/"
   xmlns:cc="http://creativecommons.org/ns#"
   xmlns:rdf="http://www.w3.org/1999/02/22-rdf-syntax-ns#"
   xmlns:svg="http://www.w3.org/2000/svg"
   xmlns="http://www.w3.org/2000/svg"
   height="101.84779"
   width="571.69147"
   id="svg2"
   viewbox="0 0 612 792"
   version="1.1">
  <metadata
     id="metadata340">
    <rdf:RDF>
      <cc:Work
         rdf:about="">
        <dc:format>image/svg+xml</dc:format>
        <dc:type
           rdf:resource="http://purl.org/dc/dcmitype/StillImage" />
        <dc:title></dc:title>
      </cc:Work>
    </rdf:RDF>
  </metadata>
  <defs
     id="defs338" />
  <g
     transform="translate(-19.685822,-345.60394)"
     id="g4">
    <g
       id="g6">
      <path
         style="fill:#8ad3e7"
         id="path8"
         d="m 225.175,421.348 c 1.951,0.34 4.254,0.873 5.666,1.643 3.593,1.54 5.462,4.178 10.802,4.541 7.21,0.488 13.345,3.849 20.787,4.362 14.114,0.77 27.608,0.866 41.466,0.353 0.961,0 2.756,0.674 3.731,0.674 l 8.181,1.025 c 15.653,4.363 32.076,4.363 47.73,7.956 6.93,1.796 13.602,3.079 20.529,4.106 3.08,0.256 6.158,1.282 9.238,1.025 4.105,-0.256 5.389,-3.079 8.982,-4.619 0,0 19.76,-1.539 29.512,-5.132 5.645,-2.054 10.008,-5.902 14.371,-10.265 1.492,-1.494 2.391,-3.701 3.389,-5.877" />
    </g>
    <g
       id="g10">
      <path
         style="fill:#5ccbf0"
         id="path12"
         d="m 225.631,421.506 c 18.57,-0.67 37.141,-0.896 55.711,-0.732 9.285,0.145 18.57,0.436 27.855,0.509 9.285,0.059 18.57,-0.052 27.855,-0.224 9.285,-0.191 18.57,-0.334 27.855,-0.393 9.286,-0.069 18.571,-0.153 27.856,-0.126 18.57,0.101 37.141,0.332 55.711,0.966 l 0,0.201 c -18.57,0.634 -37.141,0.865 -55.711,0.966 -9.285,0.027 -18.57,-0.057 -27.856,-0.126 -9.285,-0.059 -18.57,-0.201 -27.855,-0.393 -9.285,-0.172 -18.57,-0.282 -27.855,-0.224 -9.285,0.073 -18.57,0.364 -27.855,0.509 -18.57,0.164 -37.141,-0.062 -55.711,-0.732 l 0,-0.201 z" />
    </g>
    <polyline
       style="fill:none;stroke:#000000;stroke-width:2"
       id="polyline14"
       points="21.361,411.106 230.763,400.586 288.502,397.506 310.314,397.506 
		371.646,397.506 452.227,398.789 591.346,403.148 	" />
    <line
       style="fill:none;stroke:#000000;stroke-width:4"
       id="line16"
       y2="412.90302"
       x2="371.39099"
       y1="346"
       x1="371.39099" />
    <line
       style="fill:none;stroke:#000000;stroke-width:4"
       id="line18"
       y2="412.90399"
       x2="310.05499"
       y1="346.18201"
       x1="310.05499" />
    <path
       style="fill:none;stroke:#000000"
       id="path20"
       d="m 88.083,409.054 c 0.77,0 142.456,-5.123 142.456,-5.123 l 0.003,8.973 -73,0" />
    <line
       style="fill:none;stroke:#000000"
       id="line22"
       y2="412.90302"
       x2="230.763"
       y1="400.586"
       x1="230.763" />
    <line
       style="fill:none;stroke:#000000"
       id="line24"
       y2="414.01999"
       x2="194.31"
       y1="402.41699"
       x1="194.31" />
    <line
       style="fill:none;stroke:#000000"
       id="line26"
       y2="414.01999"
       x2="204.071"
       y1="401.92599"
       x1="204.071" />
    <line
       style="fill:none;stroke:#000000"
       id="line28"
       y2="403.379"
       x2="204.071"
       y1="403.931"
       x1="194.31" />
    <line
       style="fill:none;stroke:#000000"
       id="line30"
       y2="408.41699"
       x2="204.071"
       y1="408.41699"
       x1="194.31" />
    <line
       style="fill:none;stroke:#000000"
       id="line32"
       y2="408.41699"
       x2="204.071"
       y1="403.931"
       x1="194.31" />
    <line
       style="fill:none;stroke:#000000"
       id="line34"
       y2="408.41699"
       x2="194.31"
       y1="403.379"
       x1="204.071" />
    <line
       style="fill:none;stroke:#000000"
       id="line36"
       y2="412.32001"
       x2="100.253"
       y1="408.62601"
       x1="100.253" />
    <line
       style="fill:none;stroke:#000000"
       id="line38"
       y2="412.32001"
       x2="112.684"
       y1="408.18201"
       x1="112.686" />
    <line
       style="fill:none;stroke:#000000"
       id="line40"
       y2="412.90302"
       x2="118.769"
       y1="407.96301"
       x1="118.769" />
    <line
       style="fill:none;stroke:#000000"
       id="line42"
       y2="411.51599"
       x2="118.769"
       y1="408.18201"
       x1="112.686" />
    <line
       style="fill:none;stroke:#000000"
       id="line44"
       y2="411.51599"
       x2="118.769"
       y1="411.51599"
       x1="112.684" />
    <line
       style="fill:none;stroke:#000000"
       id="line46"
       y2="407.96301"
       x2="118.769"
       y1="411.51599"
       x1="112.684" />
    <line
       style="fill:none;stroke:#000000"
       id="line48"
       y2="412.90302"
       x2="130.92799"
       y1="407.52499"
       x1="130.92799" />
    <line
       style="fill:none;stroke:#000000"
       id="line50"
       y2="413.48199"
       x2="151.94"
       y1="404.53201"
       x1="152.21201" />
    <line
       style="fill:none;stroke:#000000"
       id="line52"
       y2="413.48199"
       x2="157.48399"
       y1="404.30701"
       x1="157.752" />
    <line
       style="fill:none;stroke:#000000"
       id="line54"
       y2="411.871"
       x2="157.54201"
       y1="411.871"
       x1="151.99001" />
    <line
       style="fill:none;stroke:#000000"
       id="line56"
       y2="408.89499"
       x2="157.619"
       y1="408.89499"
       x1="152.21201" />
    <line
       style="fill:none;stroke:#000000"
       id="line58"
       y2="408.89499"
       x2="157.619"
       y1="406.76199"
       x1="152.145" />
    <line
       style="fill:none;stroke:#000000"
       id="line60"
       y2="406.56799"
       x2="157.48399"
       y1="408.89499"
       x1="152.21201" />
    <line
       style="fill:none;stroke:#000000"
       id="line62"
       y2="411.871"
       x2="157.54201"
       y1="408.89499"
       x1="152.21201" />
    <line
       style="fill:none;stroke:#000000"
       id="line64"
       y2="408.89499"
       x2="157.619"
       y1="411.871"
       x1="151.99001" />
    <line
       style="fill:none;stroke:#000000"
       id="line66"
       y2="412.90302"
       x2="175.995"
       y1="405.897"
       x1="176.089" />
    <line
       style="fill:none;stroke:#000000"
       id="line68"
       y2="414.01999"
       x2="194.31"
       y1="414.01999"
       x1="204.071" />
    <line
       style="fill:none;stroke:#000000"
       id="line70"
       y2="414.01999"
       x2="204.071"
       y1="408.41699"
       x1="194.31" />
    <line
       style="fill:none;stroke:#000000"
       id="line72"
       y2="414.01999"
       x2="194.31"
       y1="408.41699"
       x1="204.071" />
    <line
       style="fill:none;stroke:#000000;stroke-width:2"
       id="line74"
       y2="412.90399"
       x2="310.43799"
       y1="412.90302"
       x1="230.54201" />
    <line
       style="fill:none;stroke:#000000"
       id="line76"
       y2="412.90302"
       x2="237.698"
       y1="400.215"
       x1="237.698" />
    <line
       style="fill:none;stroke:#000000"
       id="line78"
       y2="412.90302"
       x2="245.207"
       y1="399.815"
       x1="245.207" />
    <line
       style="fill:none;stroke:#000000"
       id="line80"
       y2="412.90399"
       x2="251.823"
       y1="399.43399"
       x1="252.364" />
    <line
       style="fill:none;stroke:#000000"
       id="line82"
       y2="412.90399"
       x2="259.32901"
       y1="399.06201"
       x1="259.32901" />
    <line
       style="fill:none;stroke:#000000"
       id="line84"
       y2="412.90302"
       x2="266.67401"
       y1="398.67001"
       x1="266.67401" />
    <line
       style="fill:none;stroke:#000000"
       id="line86"
       y2="412.90399"
       x2="274.08801"
       y1="398.27499"
       x1="274.08801" />
    <line
       style="fill:none;stroke:#000000"
       id="line88"
       y2="412.90399"
       x2="281.15201"
       y1="397.89801"
       x1="281.15201" />
    <line
       style="fill:none;stroke:#000000"
       id="line90"
       y2="412.90302"
       x2="288.396"
       y1="397.50601"
       x1="288.50201" />
    <line
       style="fill:none;stroke:#000000"
       id="line92"
       y2="412.90302"
       x2="295.819"
       y1="397.50601"
       x1="295.37201" />
    <line
       style="fill:none;stroke:#000000"
       id="line94"
       y2="412.90399"
       x2="302.35999"
       y1="397.50601"
       x1="302.35999" />
    <line
       style="fill:none;stroke:#000000"
       id="line96"
       y2="400.215"
       x2="237.698"
       y1="412.90302"
       x1="230.54201" />
    <line
       style="fill:none;stroke:#000000"
       id="line98"
       y2="412.90302"
       x2="245.207"
       y1="400.215"
       x1="237.698" />
    <line
       style="fill:none;stroke:#000000"
       id="line100"
       y2="412.90399"
       x2="251.823"
       y1="399.815"
       x1="245.207" />
    <line
       style="fill:none;stroke:#000000"
       id="line102"
       y2="412.90399"
       x2="259.32901"
       y1="399.43399"
       x1="252.364" />
    <line
       style="fill:none;stroke:#000000"
       id="line104"
       y2="412.90302"
       x2="266.67401"
       y1="399.06201"
       x1="259.32901" />
    <line
       style="fill:none;stroke:#000000"
       id="line106"
       y2="412.90399"
       x2="274.08801"
       y1="398.67001"
       x1="266.67401" />
    <line
       style="fill:none;stroke:#000000"
       id="line108"
       y2="412.90302"
       x2="266.67401"
       y1="398.27499"
       x1="274.08801" />
    <line
       style="fill:none;stroke:#000000"
       id="line110"
       y2="412.90399"
       x2="274.08801"
       y1="397.89801"
       x1="281.15201" />
    <line
       style="fill:none;stroke:#000000"
       id="line112"
       y2="412.90399"
       x2="281.15201"
       y1="397.50601"
       x1="288.50201" />
    <line
       style="fill:none;stroke:#000000"
       id="line114"
       y2="412.90302"
       x2="288.396"
       y1="397.50601"
       x1="295.37201" />
    <line
       style="fill:none;stroke:#000000"
       id="line116"
       y2="412.90302"
       x2="295.819"
       y1="397.50601"
       x1="302.35999" />
    <line
       style="fill:none;stroke:#000000"
       id="line118"
       y2="412.90302"
       x2="308.96301"
       y1="397.50601"
       x1="302.35999" />
    <line
       style="fill:none;stroke:#000000;stroke-width:2"
       id="line120"
       y2="379.54199"
       x2="371.39099"
       y1="379.54199"
       x1="310.05499" />
    <line
       style="fill:none;stroke:#000000"
       id="line122"
       y2="412.90399"
       x2="319.06799"
       y1="379.56699"
       x1="319.06799" />
    <line
       style="fill:none;stroke:#000000"
       id="line124"
       y2="412.90399"
       x2="328.18799"
       y1="379.56699"
       x1="328.18799" />
    <line
       style="fill:none;stroke:#000000"
       id="line126"
       y2="412.90302"
       x2="336.77301"
       y1="379.56699"
       x1="336.86301" />
    <line
       style="fill:none;stroke:#000000"
       id="line128"
       y2="412.90399"
       x2="345.35699"
       y1="379.56699"
       x1="345.35699" />
    <line
       style="fill:none;stroke:#000000"
       id="line130"
       y2="412.521"
       x2="354.56699"
       y1="379.56699"
       x1="354.56699" />
    <line
       style="fill:none;stroke:#000000"
       id="line132"
       y2="412.90302"
       x2="362.34799"
       y1="379.54199"
       x1="362.61499" />
    <line
       style="fill:none;stroke:#000000;stroke-width:2"
       id="line134"
       y2="412.90302"
       x2="371.39099"
       y1="412.90399"
       x1="310.43799" />
    <line
       style="fill:none;stroke:#000000"
       id="line136"
       y2="397.50601"
       x2="310.314"
       y1="379.56699"
       x1="319.06799" />
    <line
       style="fill:none;stroke:#000000"
       id="line138"
       y2="397.50601"
       x2="327.83099"
       y1="379.56699"
       x1="319.06799" />
    <line
       style="fill:none;stroke:#000000"
       id="line140"
       y2="397.50601"
       x2="336.77301"
       y1="379.56699"
       x1="328.18799" />
    <line
       style="fill:none;stroke:#000000"
       id="line142"
       y2="397.50601"
       x2="345.35699"
       y1="379.56699"
       x1="336.86301" />
    <line
       style="fill:none;stroke:#000000"
       id="line144"
       y2="397.50601"
       x2="336.77301"
       y1="379.56699"
       x1="345.35699" />
    <line
       style="fill:none;stroke:#000000"
       id="line146"
       y2="397.50601"
       x2="345.35699"
       y1="379.56699"
       x1="354.56699" />
    <line
       style="fill:none;stroke:#000000"
       id="line148"
       y2="397.50601"
       x2="354.56699"
       y1="379.54199"
       x1="362.61499" />
    <line
       style="fill:none;stroke:#000000"
       id="line150"
       y2="397.50601"
       x2="370.84399"
       y1="379.54199"
       x1="362.61499" />
    <rect
       style="fill:none;stroke:#000000"
       id="rect152"
       height="4.0240002"
       width="3.7550001"
       y="379.95001"
       x="339.009" />
    <rect
       style="fill:none;stroke:#000000"
       id="rect154"
       height="4.421"
       width="14.039"
       y="375.121"
       x="333.55499" />
    <polygon
       style="fill:none;stroke:#000000"
       id="polygon156"
       points="331.944,375.121 337.756,371.723 343.928,371.723 348.935,375.121 " />
    <line
       style="fill:none;stroke:#000000"
       id="line158"
       y2="346.18201"
       x2="310.785"
       y1="346.18201"
       x1="304.40302" />
    <line
       style="fill:none;stroke:#000000"
       id="line160"
       y2="397.50601"
       x2="295.37201"
       y1="346.18201"
       x1="304.40302" />
    <line
       style="fill:none;stroke:#000000"
       id="line162"
       y2="354.017"
       x2="309.5"
       y1="346.18201"
       x1="304.40302" />
    <line
       style="fill:none;stroke:#000000"
       id="line164"
       y2="354.017"
       x2="303.02399"
       y1="354.017"
       x1="309.5" />
    <line
       style="fill:none;stroke:#000000"
       id="line166"
       y2="363.04901"
       x2="310.05499"
       y1="354.017"
       x1="303.02399" />
    <line
       style="fill:none;stroke:#000000"
       id="line168"
       y2="363.04901"
       x2="301.435"
       y1="363.04901"
       x1="310.05499" />
    <line
       style="fill:none;stroke:#000000"
       id="line170"
       y2="373.422"
       x2="309.5"
       y1="363.04901"
       x1="301.435" />
    <line
       style="fill:none;stroke:#000000"
       id="line172"
       y2="373.422"
       x2="299.60999"
       y1="373.422"
       x1="309.5" />
    <line
       style="fill:none;stroke:#000000"
       id="line174"
       y2="385.315"
       x2="309.5"
       y1="373.422"
       x1="299.60999" />
    <line
       style="fill:none;stroke:#000000"
       id="line176"
       y2="385.315"
       x2="297.517"
       y1="385.315"
       x1="309.5" />
    <line
       style="fill:none;stroke:#000000"
       id="line178"
       y2="397.50601"
       x2="308.60501"
       y1="385.315"
       x1="297.517" />
    <line
       style="fill:none;stroke:#000000;stroke-linecap:square"
       id="line180"
       y2="397.758"
       x2="387.47501"
       y1="346.18201"
       x1="378.53299" />
    <line
       style="fill:none;stroke:#000000;stroke-linecap:square"
       id="line182"
       y2="354.465"
       x2="372.18399"
       y1="346.35699"
       x1="378.39801" />
    <line
       style="fill:none;stroke:#000000"
       id="line184"
       y2="354.465"
       x2="379.96799"
       y1="354.465"
       x1="372.18399" />
    <line
       style="fill:none;stroke:#000000"
       id="line186"
       y2="363.04901"
       x2="372.18399"
       y1="354.465"
       x1="379.96799" />
    <line
       style="fill:none;stroke:#000000"
       id="line188"
       y2="363.04901"
       x2="381.457"
       y1="363.04901"
       x1="371.80099" />
    <line
       style="fill:none;stroke:#000000"
       id="line190"
       y2="373.422"
       x2="372.18399"
       y1="363.04901"
       x1="381.457" />
    <line
       style="fill:none;stroke:#000000"
       id="line192"
       y2="373.422"
       x2="383.255"
       y1="373.422"
       x1="371.80099" />
    <line
       style="fill:none;stroke:#000000"
       id="line194"
       y2="385.315"
       x2="372.18399"
       y1="373.422"
       x1="383.255" />
    <line
       style="fill:none;stroke:#000000"
       id="line196"
       y2="385.315"
       x2="385.31601"
       y1="385.315"
       x1="371.80099" />
    <line
       style="fill:none;stroke:#000000"
       id="line198"
       y2="397.758"
       x2="372.54099"
       y1="385.315"
       x1="385.31601" />
    <line
       style="fill:none;stroke:#000000"
       id="line200"
       y2="412.90399"
       x2="379.96799"
       y1="397.63901"
       x1="379.96799" />
    <line
       style="fill:none;stroke:#000000"
       id="line202"
       y2="412.90399"
       x2="372.89899"
       y1="397.63901"
       x1="379.96799" />
    <line
       style="fill:none;stroke:#000000;stroke-width:2"
       id="line204"
       y2="414.01999"
       x2="452.48199"
       y1="412.90302"
       x1="371.39099" />
    <line
       style="fill:none;stroke:#000000"
       id="line206"
       y2="414.01999"
       x2="469.47299"
       y1="414.01999"
       x1="452.48199" />
    <line
       style="fill:none;stroke:#000000"
       id="line208"
       y2="414.01999"
       x2="452.60901"
       y1="398.789"
       x1="452.60901" />
    <line
       style="fill:none;stroke:#000000"
       id="line210"
       y2="413.461"
       x2="387.47501"
       y1="397.63901"
       x1="379.96799" />
    <line
       style="fill:none;stroke:#000000"
       id="line212"
       y2="397.758"
       x2="387.47501"
       y1="413.461"
       x1="387.47501" />
    <line
       style="fill:none;stroke:#000000"
       id="line214"
       y2="413.20599"
       x2="393.375"
       y1="397.758"
       x1="387.47501" />
    <line
       style="fill:none;stroke:#000000"
       id="line216"
       y2="397.86499"
       x2="394.17999"
       y1="413.20599"
       x1="394.17999" />
    <line
       style="fill:none;stroke:#000000"
       id="line218"
       y2="413.311"
       x2="400.97699"
       y1="397.86499"
       x1="394.17999" />
    <line
       style="fill:none;stroke:#000000"
       id="line220"
       y2="397.98001"
       x2="401.42599"
       y1="413.311"
       x1="401.42401" />
    <line
       style="fill:none;stroke:#000000"
       id="line222"
       y2="413.20599"
       x2="408.21899"
       y1="397.98001"
       x1="401.42599" />
    <line
       style="fill:none;stroke:#000000"
       id="line224"
       y2="397.98001"
       x2="408.66599"
       y1="413.311"
       x1="408.66599" />
    <line
       style="fill:none;stroke:#000000"
       id="line226"
       y2="413.461"
       x2="415.90799"
       y1="398.211"
       x1="415.90799" />
    <line
       style="fill:none;stroke:#000000"
       id="line228"
       y2="413.61301"
       x2="422.883"
       y1="398.32101"
       x1="422.883" />
    <line
       style="fill:none;stroke:#000000"
       id="line230"
       y2="413.61301"
       x2="430.21701"
       y1="398.43799"
       x1="430.21701" />
    <line
       style="fill:none;stroke:#000000"
       id="line232"
       y2="413.81799"
       x2="437.55099"
       y1="398.556"
       x1="437.55099" />
    <line
       style="fill:none;stroke:#000000"
       id="line234"
       y2="413.81799"
       x2="445.32999"
       y1="398.67999"
       x1="445.32999" />
    <line
       style="fill:none;stroke:#000000"
       id="line236"
       y2="413.81799"
       x2="437.55099"
       y1="398.67999"
       x1="445.32999" />
    <line
       style="fill:none;stroke:#000000"
       id="line238"
       y2="414.01999"
       x2="452.48199"
       y1="398.67999"
       x1="445.32999" />
    <line
       style="fill:none;stroke:#000000"
       id="line240"
       y2="413.61301"
       x2="430.21701"
       y1="398.556"
       x1="437.55099" />
    <line
       style="fill:none;stroke:#000000"
       id="line242"
       y2="413.61301"
       x2="422.883"
       y1="398.43799"
       x1="430.21701" />
    <line
       style="fill:none;stroke:#000000"
       id="line244"
       y2="413.461"
       x2="415.90799"
       y1="398.32101"
       x1="422.883" />
    <line
       style="fill:none;stroke:#000000"
       id="line246"
       y2="413.461"
       x2="415.90799"
       y1="397.98001"
       x1="408.66599" />
    <line
       style="fill:none;stroke:#000000"
       id="line248"
       y2="413.311"
       x2="408.66599"
       y1="398.211"
       x1="415.90799" />
    <line
       style="fill:none;stroke:#000000"
       id="line250"
       y2="404.30701"
       x2="537.34399"
       y1="400.69501"
       x1="452.48199" />
    <line
       style="fill:none;stroke:#000000"
       id="line252"
       y2="415.00201"
       x2="533.49799"
       y1="401.48199"
       x1="538.23999" />
    <line
       style="fill:none;stroke:#000000"
       id="line254"
       y2="414.01999"
       x2="469.47299"
       y1="399.32901"
       x1="469.47299" />
    <line
       style="fill:none;stroke:#000000"
       id="line256"
       y2="413.81799"
       x2="475.46899"
       y1="399.517"
       x1="475.46899" />
    <line
       style="fill:none;stroke:#000000"
       id="line258"
       y2="413.311"
       x2="492.01199"
       y1="400.035"
       x1="492.01199" />
    <line
       style="fill:none;stroke:#000000"
       id="line260"
       y2="413.20599"
       x2="497.91"
       y1="400.22"
       x1="497.91" />
    <line
       style="fill:none;stroke:#000000"
       id="line262"
       y2="414.64499"
       x2="514.54498"
       y1="400.73999"
       x1="514.54498" />
    <line
       style="fill:none;stroke:#000000"
       id="line264"
       y2="414.64499"
       x2="520.26801"
       y1="400.92001"
       x1="520.26801" />
    <line
       style="fill:none;stroke:#000000"
       id="line266"
       y2="407.78201"
       x2="520.26801"
       y1="403.336"
       x1="514.54498" />
    <line
       style="fill:none;stroke:#000000"
       id="line268"
       y2="407.69199"
       x2="514.54498"
       y1="403.57999"
       x1="520.26801" />
    <line
       style="fill:none;stroke:#000000"
       id="line270"
       y2="407.69199"
       x2="520.26801"
       y1="407.69199"
       x1="514.54498" />
    <line
       style="fill:none;stroke:#000000"
       id="line272"
       y2="413.20599"
       x2="514.54498"
       y1="413.20599"
       x1="520.26801" />
    <line
       style="fill:none;stroke:#000000"
       id="line274"
       y2="408.242"
       x2="520.26801"
       y1="413.20599"
       x1="514.54498" />
    <line
       style="fill:none;stroke:#000000"
       id="line276"
       y2="413.20599"
       x2="520.26801"
       y1="408.242"
       x1="514.54498" />
    <line
       style="fill:none;stroke:#000000"
       id="line278"
       y2="407.133"
       x2="497.55099"
       y1="402.5"
       x1="492.01199" />
    <line
       style="fill:none;stroke:#000000"
       id="line280"
       y2="406.40399"
       x2="492.01199"
       y1="402.61301"
       x1="497.55099" />
    <line
       style="fill:none;stroke:#000000"
       id="line282"
       y2="407.133"
       x2="497.55099"
       y1="407.133"
       x1="492.01199" />
    <line
       style="fill:none;stroke:#000000"
       id="line284"
       y2="411.87299"
       x2="497.91"
       y1="407.133"
       x1="492.01199" />
    <line
       style="fill:none;stroke:#000000"
       id="line286"
       y2="411.87299"
       x2="492.01199"
       y1="407.133"
       x1="497.55099" />
    <line
       style="fill:none;stroke:#000000"
       id="line288"
       y2="411.87299"
       x2="497.91"
       y1="411.87299"
       x1="492.01199" />
    <line
       style="fill:none;stroke:#000000"
       id="line290"
       y2="406.18799"
       x2="475.46899"
       y1="401.48199"
       x1="469.47299" />
    <line
       style="fill:none;stroke:#000000"
       id="line292"
       y2="406.08401"
       x2="469.47299"
       y1="401.64301"
       x1="474.75" />
    <line
       style="fill:none;stroke:#000000"
       id="line294"
       y2="411.10599"
       x2="474.75"
       y1="406.08401"
       x1="469.47299" />
    <line
       style="fill:none;stroke:#000000"
       id="line296"
       y2="410.72501"
       x2="469.47299"
       y1="406.18799"
       x1="475.46899" />
    <line
       style="fill:none;stroke:#000000"
       id="line298"
       y2="406.18799"
       x2="475.46899"
       y1="406.08401"
       x1="469.47299" />
    <line
       style="fill:none;stroke:#000000"
       id="line300"
       y2="411.10599"
       x2="475.46899"
       y1="410.72501"
       x1="469.47299" />
    <line
       style="fill:none;stroke:#000000"
       id="line302"
       y2="413.14801"
       x2="88.083"
       y1="409.05399"
       x1="88.083" />
    <polygon
       style="fill:none;stroke:#000000"
       id="polygon304"
       points="194.775,416.973 193.109,416.973 193.664,414.02 194.775,413.973 " />
    <polygon
       style="fill:none;stroke:#000000"
       id="polygon306"
       points="202.884,413.986 202.884,418.194 204.994,418.194 204.071,413.986 " />
    <path
       style="fill:none;stroke:#000000"
       id="path308"
       d="m 228.831,422.071 c 0,-0.169 0,-6.91 0,-6.91 l 1.077,-2.258 1.331,0 0.793,2.314 0.85,9.366 -4.051,-2.512 z" />
    <line
       style="fill:none;stroke:#000000"
       id="line310"
       y2="415.16101"
       x2="232.03101"
       y1="415.16101"
       x1="228.83099" />
    <polygon
       style="fill:none;stroke:#000000"
       id="polygon312"
       points="310.918,415.74 307.627,415.74 308.994,412.903 309.715,412.903 " />
    <polygon
       style="fill:none;stroke:#000000"
       id="polygon314"
       points="307.217,426.707 311.493,426.707 310.918,415.74 307.627,415.74 " />
    <polygon
       style="fill:none;stroke:#000000"
       id="polygon316"
       points="305.078,430.848 306.585,430.848 314.4,430.848 314.4,433.645 305.078,432.219 " />
    <rect
       style="fill:none;stroke:#000000"
       id="rect318"
       height="3.977"
       width="6.3330002"
       y="426.871"
       x="306.58499" />
    <polygon
       style="fill:none;stroke:#000000"
       id="polygon320"
       points="371.017,412.904 369.893,415.85 374.252,415.85 373.266,412.903 " />
    <polygon
       style="fill:none;stroke:#000000"
       id="polygon322"
       points="377.433,444.501 367.233,442.445 367.233,430.93 377.433,430.93 " />
    <polygon
       style="fill:none;stroke:#000000"
       id="polygon324"
       points="369.893,415.85 369.344,430.93 374.992,430.93 374.252,415.85 " />
    <g
       id="g326">
      <g
         id="g328">
        <path
           id="path330"
           d="m 19.771,411.506 c 3.413,6.144 15.29,3.914 20.822,3.305 7.451,-0.821 14.909,-1.104 22.393,-0.596 6.715,0.455 13.103,2.881 19.895,2.232 3.075,-0.294 6.039,-1.708 9.121,-2.17 3.395,-0.51 6.878,-0.544 10.301,-0.706 7.981,-0.377 15.853,0.57 23.827,0.561 15.229,-0.02 30.435,-0.166 45.657,0.417 5.398,0.207 10.519,1.445 15.804,2.503 5.907,1.182 11.411,1.798 17.338,2.212 3.52,0.245 7.005,0.225 10.504,0.748 2.302,0.345 4.177,1.447 6.447,1.729 5.905,0.732 9.864,3.99 15.233,5.907 2.941,1.05 6.472,0.917 9.522,1.642 2.698,0.642 5.323,1.563 8.023,2.199 7.17,1.69 14.683,1.529 22.016,1.698 7.499,0.173 15,0.105 22.497,-0.099 4.489,-0.121 9.12,0.777 13.586,1.337 6.744,0.846 13.391,2.836 20.163,3.782 8.604,1.203 17.245,2.025 25.789,3.637 8.706,1.642 17.18,4.009 26.003,5.104 6.42,0.798 9.765,1.12 15.006,-2.749 2.836,-2.093 7.577,-1.636 10.964,-2.057 5.448,-0.678 10.887,-1.566 16.216,-2.898 5.931,-1.483 10.849,-4.35 15.449,-8.349 4.896,-4.254 6.808,-9.568 10.683,-14.564 -0.518,0.09 -1.036,0.181 -1.554,0.271 6.069,5.4 15.457,-1.154 22.11,-1.932 14.542,-1.698 29.386,0.374 43.903,1.273 11.896,0.736 24.81,0.676 35.765,-4.515 2.734,-1.296 5.771,-1.304 8.692,-1.902 3.193,-0.654 5.43,-2.539 8.966,-2.616 4.724,-0.104 9.335,-1.687 13.888,-2.901 1.195,-0.319 0.834,-1.666 -0.361,-1.348 -4.319,1.154 -8.898,2.739 -13.36,2.812 -4.861,0.08 -8.762,2.553 -13.553,3.007 -1.757,0.166 -3.561,1.088 -5.133,1.787 -3.051,1.356 -5.948,2.424 -9.241,3.057 -7.639,1.47 -15.354,1.63 -23.103,1.296 -12.597,-0.544 -25.021,-1.906 -37.651,-1.772 -4.867,0.051 -10.14,-0.034 -14.798,1.582 -4.497,1.56 -10.393,4.822 -14.638,1.045 -0.406,-0.361 -1.255,-0.115 -1.554,0.271 -3.721,4.796 -5.783,10.062 -10.349,14.249 -5.251,4.815 -11.259,7.247 -18.106,8.739 -5.047,1.1 -10.192,1.769 -15.32,2.357 -1.862,0.214 -4.925,-0.128 -6.647,0.742 -2.842,1.434 -5.182,3.997 -8.469,4.481 -3.85,0.566 -8.912,-0.992 -12.746,-1.607 -8.096,-1.299 -15.978,-3.539 -24.047,-4.951 -7.333,-1.283 -14.764,-1.988 -22.141,-2.973 -6.538,-0.872 -12.926,-2.875 -19.422,-3.689 -3.227,-0.404 -6.417,-0.909 -9.627,-1.386 -7.034,-1.044 -14.926,0.167 -22.063,0.124 -7.895,-0.048 -16.109,0.12 -23.932,-1.07 -3.657,-0.557 -7.222,-1.845 -10.792,-2.791 -3.56,-0.942 -7.329,-0.858 -10.794,-2.096 -4.411,-1.575 -7.533,-4.335 -12.316,-5.24 -5.857,-1.108 -11.199,-2.5 -17.27,-2.717 -11.403,-0.405 -22.275,-4.094 -33.608,-4.733 -12.548,-0.709 -25.174,-0.645 -37.735,-0.55 -14.653,0.111 -29.241,-1.455 -43.854,0.205 -2.706,0.308 -5.246,1.106 -7.833,1.913 -3.889,1.214 -8.503,0.072 -12.389,-0.681 -6.691,-1.296 -13.284,-1.688 -20.092,-1.52 -5.393,0.134 -10.723,0.882 -16.092,1.295 -4.179,0.321 -11.806,1.152 -14.224,-3.2 -0.43,-0.769 -2.268,-0.041 -1.769,0.859 l 0,0 z" />
      </g>
    </g>
    <polygon
       style="fill:none;stroke:#000000"
       id="polygon332"
       points="452.609,414.179 451.566,415.361 453.602,415.361 " />
    <path
       style="fill:none;stroke:#000000;stroke-linecap:square"
       id="path334"
       d="m 310.055,346.182 c 0,0 16.625,2.239 30.385,2.172 13.76,-0.068 30.951,-2.172 30.951,-2.172 l 7.143,0" />
  </g>
</svg>
